<svg xmlns="http://www.w3.org/2000/svg" viewBox="0 0 69.67 30"><path d="M21.17,30A10.59,10.59,0,0,1,11.1,22.48l-.63.07V23.7H.17l-.17-3,7.47-.84V13.5h5.08A10.56,10.56,0,0,1,16.67,10V0h45V9.3A10.5,10.5,0,1,1,48.77,21H31.56a10.52,10.52,0,0,1-10.39,9ZM13.54,19.19l.21,1.43A7.55,7.55,0,0,0,21.17,27h0a7.51,7.51,0,0,0,7.5-7.5V18h23v1.5A7.5,7.5,0,1,0,60,12.05l-1.33-.15V3h-39v9.07l-1,.36a7.44,7.44,0,0,0-4,3.32l-.44.75H10.47v3Z" style="fill:#fff"/><path d="M51.42,19.53l-3-.34c.93-8.31,8.08-10.26,11.71-10.13l-.11,3,.06-1.5-.05,1.5C59.72,12.05,52.27,11.93,51.42,19.53Z" style="fill:#fff"/><path d="M28.81,19.66c-.07-.78-.93-7.53-9.14-7.53h-.34l-.06-3c9.2-.19,12.23,6.64,12.53,10.28l-3,.24,1.49-.12Z" style="fill:#fff"/></svg>