<svg xmlns="http://www.w3.org/2000/svg" width="31.563" height="32.951" viewBox="0 0 31.563 32.951">
  <path id="União_2" data-name="União 2" d="M11.256,30.693,0,18.094.337,8.046,5,12.665l-.187,5.6L11.456,24.7l3.888.142,2.066-.7a5.329,5.329,0,0,1-.063-.82,4.972,4.972,0,0,1,4.862-5.076,4.693,4.693,0,0,1,.869.081l.728-2.086V12.182L17.88,5.028H12.507L8.247,0H17.88L29.55,12.182v6.96l-2.716,2.608a5.275,5.275,0,0,1,.238,1.574A4.973,4.973,0,0,1,22.21,28.4a4.672,4.672,0,0,1-1.619-.288l-2.67,2.825Z" transform="translate(1.013 1)" fill="none" stroke="#fff" stroke-width="2"/>
</svg>
