<svg id="Componente_1_3" data-name="Componente 1 – 3" xmlns="http://www.w3.org/2000/svg" width="42" height="39" viewBox="0 0 42 39">
  <path id="Icon_ionic-md-arrow-round-back" data-name="Icon ionic-md-arrow-round-back" d="M27.545,15.467H12.95l5.661-5.415a2.256,2.256,0,0,0,0-3.083,2.017,2.017,0,0,0-2.946,0L6.239,16.108a2.077,2.077,0,0,0-.614,1.528v.027a2.077,2.077,0,0,0,.614,1.528l9.419,9.139a2.017,2.017,0,0,0,2.946,0,2.256,2.256,0,0,0,0-3.083l-5.661-5.415h14.6a2.135,2.135,0,0,0,2.087-2.182A2.112,2.112,0,0,0,27.545,15.467Z" transform="translate(-5.625 2.17)" fill="#014d8f" opacity="0.7"/>
  <line id="Linha_1" data-name="Linha 1" y2="39" transform="translate(40.5)" fill="none" stroke="#014d8f" stroke-width="3"/>
</svg>
