<svg xmlns="http://www.w3.org/2000/svg" width="28.985" height="55" viewBox="0 0 28.985 55">
  <path id="União_1" data-name="União 1" d="M8.415,53V44.739h4.959V40.36L15.185,38.8a4.114,4.114,0,1,1-.024.454c0-.111,0-.221.013-.33l-1.8,5.817H22v0h1.678V53ZM27.171,28.7a3.978,3.978,0,0,1-7.406-.4,4.18,4.18,0,0,1-.228-1.367,4.012,4.012,0,1,1,8.022,0,4.175,4.175,0,0,1-.387,1.764l-4.11,11.71Zm-7.493-.211-6.511-8.614,6.511,8.614-3.97,8.587Zm0,0,.32.424Zm0,0,.086-.186ZM19.1,14.464a4.187,4.187,0,0,1,.058,4.446,3.957,3.957,0,0,1-5.527,1.306,4.129,4.129,0,0,1-.459-.341,4.175,4.175,0,0,1-.852-5.257h-.071a2.5,2.5,0,0,1-.85-.148l-1.4,1.454-3.5-.125L.586,9.314.763,4.142,3.211,6.52,3.112,9.4,6.6,12.716l2.041.073,1.085-.361a2.691,2.691,0,0,1-.033-.422,2.583,2.583,0,0,1,2.553-2.613,2.512,2.512,0,0,1,.456.042l.382-1.075V6.271L9.971,2.588H7.151L4.915,0H9.971L16.1,6.271V9.853L14.671,11.2a2.687,2.687,0,0,1,.012,1.581,3.919,3.919,0,0,1,3.193.476A4.041,4.041,0,0,1,19.1,14.464l7.5,9.791Z" transform="translate(0.427 1)" fill="none" stroke="#fff" stroke-width="2"/>
</svg>
